<?xml version="1.0" standalone="no"?>
<!DOCTYPE svg PUBLIC "-//W3C//DTD SVG 20010904//EN"
 "http://www.w3.org/TR/2001/REC-SVG-20010904/DTD/svg10.dtd">
<svg version="1.0" xmlns="http://www.w3.org/2000/svg"
 width="393.000000pt" height="393.000000pt" viewBox="0 0 393.000000 393.000000"
 preserveAspectRatio="xMidYMid meet">
<metadata>
Created by potrace 1.11, written by Peter Selinger 2001-2013
</metadata>
<g transform="translate(0.000000,393.000000) scale(0.100000,-0.100000)"
fill="#000000" stroke="none">
<path d="M1849 3906 c-2 -2 -33 -6 -69 -10 -254 -24 -559 -123 -769 -248 -34
-21 -65 -38 -67 -38 -2 0 -34 -21 -72 -47 -264 -183 -473 -413 -624 -685 -31
-57 -58 -110 -60 -118 -2 -8 -6 -17 -9 -20 -11 -10 -67 -155 -93 -243 -31
-102 -62 -244 -73 -337 -9 -75 -9 -396 -1 -455 45 -293 125 -528 255 -747 300
-507 849 -857 1448 -924 133 -15 436 -9 536 11 13 3 38 8 54 11 74 13 245 58
280 74 11 5 47 18 80 30 80 29 254 117 346 175 229 146 435 350 594 585 64 95
170 307 209 418 34 94 85 292 91 351 3 25 9 73 14 106 9 65 7 373 -3 445 -17
117 -58 286 -94 390 -39 110 -161 365 -181 380 -4 3 -16 20 -26 38 -11 17 -23
32 -27 32 -4 0 -8 7 -8 15 0 9 -7 18 -15 21 -8 4 -15 12 -15 19 0 8 -11 22
-25 33 -13 11 -22 22 -20 24 9 9 -203 224 -285 289 -229 181 -470 300 -749
369 -64 16 -134 32 -156 35 -23 3 -52 8 -65 11 -29 6 -395 16 -401 10z m333
-1465 c37 -6 79 -16 93 -21 14 -5 25 -8 25 -5 0 7 131 -40 203 -73 66 -30 67
-32 63 -64 -3 -18 -8 -55 -11 -83 -12 -96 -17 -121 -50 -221 -64 -195 -157
-346 -305 -494 -98 -98 -230 -196 -252 -187 -7 2 -49 31 -93 64 -283 210 -451
518 -480 879 l-5 61 88 41 c84 39 192 76 255 88 17 2 33 7 37 9 3 2 37 7 75
10 39 4 71 8 73 9 7 7 225 -3 284 -13z"/>
</g>
</svg>
